<?xml version="1.0" encoding="utf-8"?>
<!-- Generator: Adobe Illustrator 28.2.0, SVG Export Plug-In . SVG Version: 6.00 Build 0)  -->
<svg version="1.1" id="Ebene_1" xmlns="http://www.w3.org/2000/svg" xmlns:xlink="http://www.w3.org/1999/xlink" x="0px" y="0px"
	 width="72.2px" height="90.1px" viewBox="0 0 72.2 90.1" style="enable-background:new 0 0 72.2 90.1;" xml:space="preserve">
<style type="text/css">
	.st0{fill:#E96808;stroke:url(#SVGID_1_);stroke-width:0.1268;stroke-miterlimit:10;}
	.st1{fill:#FFFFFF;}
	.st2{fill:#FFFFFF;stroke:#FFFFFF;stroke-width:0.1268;stroke-miterlimit:10;}
	
		.st3{fill:#E96808;stroke:url(#SVGID_00000127003347932066840520000013927136685957801600_);stroke-width:0.1268;stroke-miterlimit:10;}
	.st4{fill:#E05D04;}
	.st5{stroke:#000000;stroke-width:0.1268;stroke-miterlimit:10;}
	.st6{fill:none;stroke:#000000;stroke-width:3.4236;stroke-miterlimit:10;}
	.st7{fill:none;stroke:#000000;stroke-width:3.5197;stroke-miterlimit:10;}
	.st8{fill:none;stroke:#000000;stroke-width:2.6628;stroke-miterlimit:10;}
	.st9{fill:none;stroke:#000000;stroke-width:4.9451;stroke-miterlimit:10;}
	.st10{fill:#313130;}
	.st11{fill:none;stroke:#343333;stroke-width:0.3804;stroke-linecap:round;stroke-linejoin:round;stroke-miterlimit:10;}
	.st12{fill:none;stroke:#FFFFFF;stroke-width:0.1268;stroke-linecap:round;stroke-linejoin:round;stroke-miterlimit:10;}
	.st13{fill:none;stroke:#343333;stroke-width:0.3394;stroke-linecap:round;stroke-linejoin:round;stroke-miterlimit:10;}
	.st14{fill:none;stroke:#343333;stroke-width:0.4312;stroke-linecap:round;stroke-linejoin:round;stroke-miterlimit:10;}
	.st15{fill:none;stroke:#343333;stroke-width:0.5133;stroke-linecap:round;stroke-linejoin:round;stroke-miterlimit:10;}
	
		.st16{fill:#E96808;stroke:url(#SVGID_00000008136127093318707050000008012890213948099994_);stroke-width:0.1268;stroke-miterlimit:10;}
	.st17{fill:none;stroke:#343333;stroke-width:0.4326;stroke-linecap:round;stroke-linejoin:round;stroke-miterlimit:10;}
	.st18{stroke:#000000;stroke-width:0.1359;stroke-miterlimit:10;}
</style>
<g>
	<linearGradient id="SVGID_1_" gradientUnits="userSpaceOnUse" x1="2.8103" y1="36.4904" x2="69.7704" y2="36.4904">
		<stop  offset="0" style="stop-color:#FFFFFF"/>
		<stop  offset="1" style="stop-color:#000000"/>
	</linearGradient>
	<path class="st0" d="M11,58.3c6.1,7.1,15.2,11.6,25.3,11.6c10.1,0,19.1-4.4,25.2-11.5c0.6-0.6,1.1-1.3,1.6-2c-1,0-2,0-3.1,0
		c1,0,2,0,3.1,0c0.2-0.3,0.5-0.6,0.7-0.9c3.8-5.4,6-12,6-19c0-18.5-15-33.4-33.4-33.4S2.9,18,2.9,36.5c0,6.9,2.1,13.4,5.7,18.7"/>
	<path class="st1" d="M61.6,52.5c0,0-2.1-2.2-10.6,0.1c0,0,8.1-3.2,10.5-2.3"/>
	<path class="st1" d="M61.6,46c0,0-7.1-0.5-14.8,3c0,0,7.7-4.3,14.7-4.3"/>
	<path class="st2" d="M61.5,40.4c0,0-6.8-0.7-13.8,2.1c0,0,8.8-4.2,13.9-3.7"/>
	<path class="st2" d="M60.1,34.1c0,0-4.5-0.5-9.7,0.7c0,0,5.9-2.2,9.7-2.1"/>
	
		<linearGradient id="SVGID_00000085939560743008899840000014984115458717784981_" gradientUnits="userSpaceOnUse" x1="8.2454" y1="56.7473" x2="10.7492" y2="56.7473">
		<stop  offset="0" style="stop-color:#FFFFFF"/>
		<stop  offset="1" style="stop-color:#000000"/>
	</linearGradient>
	
		<path style="fill:#E96808;stroke:url(#SVGID_00000085939560743008899840000014984115458717784981_);stroke-width:0.1268;stroke-miterlimit:10;" d="
		M8.3,55.2c0.7,1.1,1.5,2.1,2.4,3.1"/>
	<path class="st4" d="M8.5,20.9c-1.2,0-2.3,0.1-3.5,0.2c-2.3,4.5-3.6,9.6-3.6,15.1c0,18.5,15,33.4,33.4,33.4c1.2,0,2.3-0.1,3.5-0.2
		c2.3-4.5,3.6-9.6,3.6-15C41.9,35.8,27,20.9,8.5,20.9z"/>
	<path class="st1" d="M10.5,52.3c0,0,2.1-2.2,10.6,0.1c0,0-8.1-3.2-10.5-2.3"/>
	<path class="st1" d="M10.5,45.8c0,0,7.1-0.5,14.8,3c0,0-7.7-4.3-14.7-4.3"/>
	<path class="st2" d="M10.5,40.3c0,0,6.8-0.7,13.8,2.1c0,0-8.8-4.2-13.9-3.7"/>
	<path class="st2" d="M11.9,34c0,0,4.5-0.5,9.7,0.7c0,0-5.9-2.2-9.7-2.1"/>
	<path d="M67.4,63.4H4.6c-1.1,0-2-0.9-2-2V60c0-1.1,0.9-2,2-2h62.9c1.1,0,2,0.9,2,2v1.5C69.4,62.5,68.5,63.4,67.4,63.4z"/>
	<rect x="32.6" y="59.4" width="6.7" height="9.1"/>
	<path class="st5" d="M49,33.8"/>
	<path class="st6" d="M9.4,30.7c0.9,0,1.8,0,2.6,0.1c13.5,0.9,24,9.1,24,19"/>
	<path d="M11.9,35.9H9V29h0.8c1.2,0,2.1,1,2.1,2.1V35.9z"/>
	<path class="st7" d="M7.9,36.8c0.9,0,1.9,0,2.8,0.1C24.9,37.9,36,46,36,56"/>
	<path d="M10.5,41.3H7.5v-6.9h0.8c1.2,0,2.3,1,2.3,2.3V41.3z"/>
	<path class="st7" d="M7.9,42.7c0.9,0,1.9,0,2.8,0.1c14.2,0.9,25.4,9.1,25.4,19"/>
	<path d="M10.5,47.2H7.5v-6.9h0.8c1.2,0,2.3,1,2.3,2.3V47.2z"/>
	<path class="st7" d="M7.9,48.3c0.9,0,1.9,0,2.8,0.1c14.2,0.9,25.4,9.1,25.4,19"/>
	<path d="M10.5,55.8H7.5v-9.9h0.8c1.2,0,2.3,1,2.3,2.3V55.8z"/>
	<path d="M29.7,57.9L29.7,57.9z"/>
	<path d="M9,54.3L9,54.3z"/>
	<path class="st8" d="M30.4,58.6c0-1.5-6.8-3.8-11.3-3.8"/>
	<path d="M19.2,56.1H9H8.7H8c-1.5,0-2.7-1.2-2.7-2.7v0h13.8V56.1z"/>
	<rect x="32" y="29.5" transform="matrix(0.6313 -0.7756 0.7756 0.6313 -12.3269 37.1839)" width="1.9" height="4.2"/>
	<path d="M32.3,31.1l-1.8,0.2c-2.8,0.3-5.3-1.6-5.6-4.4l-0.2-1.8l1.8-0.2c2.8-0.3,5.3,1.6,5.6,4.4L32.3,31.1z"/>
	<rect x="32.8" y="21.1" transform="matrix(0.6313 -0.7756 0.7756 0.6313 -5.5541 34.7722)" width="1.9" height="4.2"/>
	<path d="M33.2,22.7L31.4,23c-2.8,0.3-5.3-1.6-5.6-4.4l-0.2-1.8l1.8-0.2c2.8-0.3,5.3,1.6,5.6,4.4L33.2,22.7z"/>
	<path d="M34.8,18l-1.3-1.3c-1.3-1.3-1.3-3.4,0-4.8L36,9.5l2.5,2.5c1.3,1.3,1.3,3.4,0,4.8L37.2,18C36.5,18.7,35.5,18.7,34.8,18z"/>
	<path class="st6" d="M62.6,30.9c-0.9,0-1.8,0-2.6,0.1c-13.5,0.9-24,9.1-24,19"/>
	<path d="M60.1,36.1H63v-6.9h-0.8c-1.2,0-2.1,1-2.1,2.1V36.1z"/>
	<path class="st7" d="M64.1,37c-0.9,0-1.9,0-2.8,0.1C47.1,38,36,46.2,36,56.1"/>
	<path d="M61.5,41.5h3.1v-6.9h-0.8c-1.2,0-2.3,1-2.3,2.3V41.5z"/>
	<path class="st7" d="M64.1,42.9c-0.9,0-1.9,0-2.8,0.1C47.1,43.9,36,52.1,36,62"/>
	<path d="M61.5,47.4h3.1v-6.9h-0.8c-1.2,0-2.3,1-2.3,2.3V47.4z"/>
	<path class="st7" d="M64.1,48.5c-0.9,0-1.9,0-2.8,0.1C47.1,49.5,36,57.7,36,67.6"/>
	<path d="M64.5,56V46h-0.8c-1.3,0-2.3,1-2.3,2.3V56H64.5z"/>
	<path d="M63,54.4L63,54.4z"/>
	<path class="st8" d="M41.6,58.8c0-1.5,6.8-3.8,11.3-3.8"/>
	<polygon points="66.7,53.6 52.9,53.6 52.9,56.3 64,56.3 	"/>
	<polygon points="36.9,32.3 38,33.8 41.3,31.1 40.1,29.7 36.9,32.3 	"/>
	<path d="M39.8,31.3l1.8,0.2c2.8,0.3,5.3-1.6,5.6-4.4l0.2-1.8l-1.8-0.2c-2.8-0.3-5.3,1.6-5.6,4.4L39.8,31.3z"/>
	<rect x="36.1" y="22.4" transform="matrix(0.7756 -0.6313 0.6313 0.7756 -6.1874 29.3788)" width="4.2" height="1.9"/>
	<path d="M38.8,22.9l1.8,0.2c2.8,0.3,5.3-1.6,5.6-4.4l0.2-1.8l-1.8-0.2c-2.8-0.3-5.3,1.6-5.6,4.4L38.8,22.9z"/>
	<g>
		<path d="M20.2,84.3V84c0.6-0.1,0.7-0.1,0.7-0.8v-2.1c0-0.6,0-0.7-0.6-0.8v-0.2c0.5-0.1,1-0.2,1.5-0.4c0,0.4,0,0.9,0,1.3v2.2
			c0,0.7,0.1,0.7,0.7,0.8v0.3H20.2z M21.3,78.7c-0.3,0-0.5-0.3-0.5-0.5c0-0.3,0.3-0.6,0.6-0.6c0.3,0,0.5,0.2,0.5,0.6
			C21.8,78.4,21.6,78.7,21.3,78.7z"/>
		<path d="M26.4,81.1c-0.2-0.6-0.5-1-1.1-1c-0.4,0-0.6,0.3-0.6,0.7c0,0.4,0.3,0.6,0.9,0.9c0.9,0.4,1.3,0.7,1.3,1.4
			c0,0.9-0.9,1.4-1.7,1.4c-0.5,0-1-0.2-1.2-0.3c-0.1-0.3-0.1-0.9-0.2-1.2l0.3-0.1c0.2,0.7,0.5,1.2,1.3,1.2c0.4,0,0.7-0.3,0.7-0.7
			c0-0.5-0.3-0.7-0.8-1C24.5,82.1,24,81.8,24,81c0-0.7,0.6-1.3,1.6-1.3c0.4,0,0.8,0.1,1,0.1c0,0.2,0.1,0.9,0.2,1.1L26.4,81.1z"/>
		<path d="M30.7,79.7c1.3,0,2.2,1,2.2,2.3c0,1.7-1.2,2.4-2.2,2.4c-1.4,0-2.3-1.1-2.3-2.3C28.4,80.5,29.7,79.7,30.7,79.7z M30.5,80.1
			c-0.6,0-1.2,0.6-1.2,1.8c0,1.3,0.6,2.2,1.4,2.2c0.6,0,1.2-0.5,1.2-1.9C31.9,81,31.4,80.1,30.5,80.1z"/>
		<path d="M39.4,84.3c-0.6,0-1.2,0-1.4,0c-0.1-0.1-1.7-2-1.7-2c-0.1-0.2-0.2-0.2-0.3-0.2c0,0-0.1,0-0.2,0v1.1c0,0.7,0.1,0.7,0.7,0.8
			v0.3h-2.3V84c0.7-0.1,0.7-0.1,0.7-0.8v-4.9c0-0.7-0.1-0.7-0.7-0.8v-0.3c0.5-0.1,1.1-0.2,1.5-0.3c0,0.4,0,0.9,0,1.3v3.6
			c0.3-0.1,0.5-0.2,0.7-0.4c0.2-0.2,0.6-0.7,0.8-1c0.2-0.3,0.1-0.4-0.4-0.4v-0.3l2.1-0.1V80c-0.7,0.1-0.9,0.2-1.4,0.7
			c-0.2,0.2-0.7,0.7-0.9,1c0.2,0.3,1.2,1.5,1.6,1.8c0.5,0.5,0.6,0.5,1,0.5V84.3z"/>
		<path d="M40,84.3V84c0.7-0.1,0.7-0.1,0.7-0.8v-4.9c0-0.6-0.1-0.7-0.7-0.8v-0.3c0.6-0.1,1.2-0.2,1.5-0.3c0,0.5,0,1,0,1.5v4.8
			c0,0.7,0.1,0.7,0.7,0.8v0.3H40z"/>
		<path d="M43.6,84.3V84c0.6-0.1,0.7-0.1,0.7-0.8v-2.1c0-0.6,0-0.7-0.6-0.8v-0.2c0.5-0.1,1-0.2,1.5-0.4c0,0.4,0,0.9,0,1.3v2.2
			c0,0.7,0.1,0.7,0.7,0.8v0.3H43.6z M44.6,78.7c-0.3,0-0.5-0.3-0.5-0.5c0-0.3,0.3-0.6,0.6-0.6c0.3,0,0.5,0.2,0.5,0.6
			C45.2,78.4,44.9,78.7,44.6,78.7z"/>
		<path d="M49.3,79.8c0.2-0.1,0.3-0.1,0.4-0.1c1.1,0,2,1,2,2.2c0,1.4-1.2,2.6-2.5,2.6c-0.4,0-1-0.1-1.6-0.4c0-0.3,0-0.5,0-0.8v-4.9
			c0-0.6,0-0.7-0.7-0.7v-0.3c0.5-0.1,1.1-0.2,1.5-0.3c0,0.4,0,0.8,0,1.2v2L49.3,79.8z M48.4,83.1c0,0.2,0,0.3,0.1,0.4
			c0.1,0.3,0.5,0.6,1,0.6c0.9,0,1.3-0.8,1.3-1.9c0-1.2-0.7-1.9-1.6-1.9c-0.3,0-0.6,0.1-0.8,0.2V83.1z"/>
	</g>
	<path class="st9" d="M9,56.1c-4-5.5-6.4-12.3-6.4-19.7C2.6,18,17.6,3.1,36,3.1s33.4,15,33.4,33.4c0,7.1-2.2,13.6-6,19
		c-0.7,1-1.5,2-2.3,2.9"/>
	<path class="st9" d="M61.2,58.4c-6.1,7-15.1,11.5-25.2,11.5c-10.3,0-19.5-4.7-25.6-12"/>
	<path class="st1" d="M10.5,50"/>
	<path class="st1" d="M5.9,56.1h13.9c0,0,3.8-0.1,7.7,1.9L7.2,58.1L5.9,56.1z"/>
	<path class="st1" d="M66,56.2H52.4c0,0-3.8-0.1-7.7,1.8l20.1,0L66,56.2z"/>
	<path class="st10" d="M33.4,16.1"/>
	<path d="M34.8,18l-1.3-1.3c-1.3-1.3-1.3-3.4,0-4.8L36,9.5l2.5,2.5c1.3,1.3,1.3,3.4,0,4.8L37.1,18C36.5,18.7,35.4,18.7,34.8,18z"/>
	<path class="st11" d="M34.4,12.2c0,0-1.8,2.8,0.6,5.1"/>
	<path class="st12" d="M42.2,0.7"/>
	<path class="st11" d="M25.8,17"/>
	<path class="st13" d="M26.1,17.3l0.3,1.4c0,0,0.3,0.7,1.1,1.1"/>
	<path class="st14" d="M41.1,19.4c0,0-2,1.3-1.3,2.7"/>
	<path class="st15" d="M40.8,29.8c0,0,0.5-2.5,2.6-2.8"/>
	<path class="st11" d="M26.1,25.3"/>
	
		<linearGradient id="SVGID_00000151542319117229477310000011850508072413326515_" gradientUnits="userSpaceOnUse" x1="25.1536" y1="25.2914" x2="25.1536" y2="25.2914">
		<stop  offset="0" style="stop-color:#FFFFFF"/>
		<stop  offset="1" style="stop-color:#000000"/>
	</linearGradient>
	
		<path style="fill:#E96808;stroke:url(#SVGID_00000151542319117229477310000011850508072413326515_);stroke-width:0.1268;stroke-miterlimit:10;" d="
		M25.2,25.3"/>
	<path class="st17" d="M25.4,25.6l0.5,1.7c0,0,0.5,1.6,2.3,1.8"/>
	<path class="st18" d="M35.1,68.9h1.7c0.6,0,1.1-0.5,1.1-1.1v-46c0-0.5-0.4-0.9-0.9-0.9h-2.1c-0.5,0-0.9,0.4-0.9,0.9v46
		C34,68.4,34.5,68.9,35.1,68.9z"/>
	<path class="st11" d="M34.1,23.3c0,0-0.1-2.1,1.6-2.1"/>
</g>
<g>
</g>
<g>
</g>
<g>
</g>
<g>
</g>
<g>
</g>
</svg>
